<svg width="20" height="20" viewBox="0 0 20 20" fill="none" xmlns="http://www.w3.org/2000/svg">
<path d="M14 19.75C14.4142 19.75 14.75 19.4142 14.75 19C14.75 18.5858 14.4142 18.25 14 18.25V19.75ZM13.25 10C13.25 11.8358 11.8358 13.25 10 13.25V14.75C12.6642 14.75 14.75 12.6642 14.75 10H13.25ZM10 13.25C8.16421 13.25 6.75 11.8358 6.75 10H5.25C5.25 12.6642 7.33579 14.75 10 14.75V13.25ZM6.75 10C6.75 8.16421 8.16421 6.75 10 6.75V5.25C7.33579 5.25 5.25 7.33579 5.25 10H6.75ZM10 6.75C11.8358 6.75 13.25 8.16421 13.25 10H14.75C14.75 7.33579 12.6642 5.25 10 5.25V6.75ZM13.25 10C13.25 10.4873 13.244 11.613 13.6062 12.6273C13.7907 13.144 14.0867 13.6798 14.5708 14.0886C15.0681 14.5086 15.712 14.75 16.5 14.75V13.25C16.038 13.25 15.7444 13.1164 15.5386 12.9426C15.3196 12.7577 15.1468 12.481 15.0188 12.1227C14.756 11.387 14.75 10.5127 14.75 10H13.25ZM16.5 14.75C17.4244 14.75 18.2716 14.4357 18.8769 13.7439C19.4708 13.0652 19.75 12.1168 19.75 11H18.25C18.25 11.8832 18.0292 12.4348 17.7481 12.7561C17.4784 13.0643 17.0756 13.25 16.5 13.25V14.75ZM19.75 11V9H18.25V11H19.75ZM19.75 9C19.75 6.98754 18.6186 4.80437 16.8948 3.14688C15.1571 1.47595 12.7282 0.25 10 0.25V1.75C12.2718 1.75 14.3429 2.77405 15.8552 4.22812C17.3814 5.69563 18.25 7.51246 18.25 9H19.75ZM10 0.25C4.58579 0.25 0.25 4.58579 0.25 10H1.75C1.75 5.41421 5.41421 1.75 10 1.75V0.25ZM0.25 10C0.25 15.4142 4.58579 19.75 10 19.75V18.25C5.41421 18.25 1.75 14.5858 1.75 10H0.25ZM10 19.75H14V18.25H10V19.75Z" fill="#D2D4D9"/>
</svg>
