<svg width="8" height="12" viewBox="0 0 8 12" fill="none" xmlns="http://www.w3.org/2000/svg">
<path d="M6.5 6L7.03033 6.53033C7.32323 6.23744 7.32323 5.76256 7.03033 5.46967L6.5 6ZM0.969673 10.4697C0.67678 10.7626 0.67678 11.2374 0.969673 11.5303C1.26257 11.8232 1.73744 11.8232 2.03033 11.5303L0.969673 10.4697ZM2.03033 0.46967C1.73744 0.176776 1.26257 0.176776 0.969674 0.46967C0.676781 0.762562 0.676781 1.23744 0.969674 1.53033L2.03033 0.46967ZM5.96967 5.46967L0.969673 10.4697L2.03033 11.5303L7.03033 6.53033L5.96967 5.46967ZM7.03033 5.46967L2.03033 0.46967L0.969674 1.53033L5.96967 6.53033L7.03033 5.46967Z" fill="white"/>
</svg>
