<svg width="16" height="16" viewBox="0 0 16 16" fill="none" xmlns="http://www.w3.org/2000/svg">
<path d="M3.8637 8.1363C3.57081 7.8434 3.09594 7.8434 2.80304 8.1363C2.51015 8.42919 2.51015 8.90406 2.80304 9.19696L3.8637 8.1363ZM6.00004 11.3333L5.46971 11.8636L6.00004 12.394L6.53037 11.8636L6.00004 11.3333ZM13.197 5.19696C13.4899 4.90406 13.4899 4.42919 13.197 4.1363C12.9041 3.8434 12.4293 3.8434 12.1364 4.1363L13.197 5.19696ZM2.80304 9.19696L5.46971 11.8636L6.53037 10.803L3.8637 8.1363L2.80304 9.19696ZM6.00004 11.3333C6.53037 11.8636 6.53039 11.8636 6.53042 11.8636C6.53045 11.8635 6.53049 11.8635 6.53056 11.8634C6.53068 11.8633 6.53087 11.8631 6.53111 11.8629C6.53125 11.8627 6.5327 11.8613 6.53333 11.8607C6.54446 11.8495 6.52538 11.8686 6.537 11.857C6.53933 11.8547 6.53692 11.8571 6.53937 11.8546C6.5398 11.8542 6.54024 11.8538 6.54069 11.8533C6.54115 11.8528 6.54162 11.8524 6.54211 11.8519C6.56469 11.8293 6.53212 11.8619 6.55659 11.8374C6.5685 11.8255 6.56289 11.8311 6.57664 11.8174C6.597 11.797 6.57998 11.814 6.60214 11.7919C6.61733 11.7767 6.61601 11.778 6.63295 11.761C6.65086 11.7431 6.62346 11.7705 6.64148 11.7525C6.64163 11.7524 6.65006 11.7439 6.65032 11.7437C6.65182 11.7422 6.65333 11.7407 6.65486 11.7391C6.65639 11.7376 6.65793 11.7361 6.65948 11.7345C6.66617 11.7278 6.66218 11.7318 6.66897 11.725C6.71416 11.6798 6.66319 11.7308 6.71005 11.6839C6.74806 11.6459 6.71642 11.6776 6.75606 11.6379C6.75808 11.6359 6.76011 11.6339 6.76216 11.6318C6.7642 11.6298 6.76626 11.6277 6.76833 11.6257C6.80515 11.5888 6.74397 11.65 6.78089 11.6131C6.79513 11.5989 6.79226 11.6017 6.8069 11.5871C6.83423 11.5598 6.80637 11.5876 6.83408 11.5599C6.83944 11.5546 6.85668 11.5373 6.86242 11.5316C6.87206 11.5219 6.88188 11.5121 6.8919 11.5021C6.8944 11.4996 6.89692 11.4971 6.89945 11.4945C6.90197 11.492 6.90451 11.4895 6.90706 11.4869C6.90961 11.4844 6.91217 11.4818 6.91475 11.4792C6.91732 11.4767 6.91991 11.4741 6.9225 11.4715C6.93527 11.4587 6.92537 11.4686 6.93822 11.4558C6.97686 11.4171 6.91549 11.4785 6.95422 11.4398C6.95858 11.4354 6.96603 11.428 6.97048 11.4235C6.97322 11.4208 6.97596 11.418 6.97872 11.4153C6.98147 11.4125 6.98424 11.4098 6.98702 11.407C6.99979 11.3942 6.99097 11.403 7.00383 11.3902C7.00947 11.3845 7.01518 11.3788 7.0209 11.3731C7.02377 11.3702 7.02665 11.3673 7.02954 11.3645C7.03243 11.3616 7.03533 11.3587 7.03824 11.3557C7.047 11.347 7.04701 11.347 7.05585 11.3381C7.06763 11.3264 7.07971 11.3143 7.09184 11.3022C7.1176 11.2764 7.10275 11.2912 7.12886 11.2651C7.17069 11.2233 7.10583 11.2882 7.14775 11.2462C7.15845 11.2355 7.15611 11.2379 7.16689 11.2271C7.18619 11.2078 7.1669 11.2271 7.18628 11.2077C7.18953 11.2045 7.1928 11.2012 7.19607 11.1979C7.19934 11.1946 7.20263 11.1914 7.20592 11.1881C7.20921 11.1848 7.21252 11.1815 7.21583 11.1782C7.21915 11.1748 7.22247 11.1715 7.22581 11.1682C7.23876 11.1552 7.2329 11.1611 7.24593 11.1481C7.262 11.132 7.27053 11.1235 7.28692 11.1071C7.32529 11.0687 7.2693 11.1247 7.30776 11.0862C7.31126 11.0827 7.31476 11.0792 7.31827 11.0757C7.32179 11.0722 7.32531 11.0687 7.32885 11.0651C7.35853 11.0355 7.3204 11.0736 7.35016 11.0438C7.35374 11.0403 7.35732 11.0367 7.36091 11.0331C7.3645 11.0295 7.3681 11.0259 7.37171 11.0223C7.39675 10.9972 7.36837 11.0256 7.39349 11.0005C7.42944 10.9646 7.37947 11.0145 7.4155 10.9785C7.42532 10.9687 7.45006 10.9439 7.46019 10.9338C7.49403 10.9 7.5172 10.8768 7.55221 10.8418C7.55739 10.8366 7.57051 10.8235 7.57576 10.8182C7.5797 10.8143 7.58365 10.8103 7.58761 10.8064C7.59157 10.8024 7.59554 10.7985 7.59951 10.7945C7.60349 10.7905 7.60748 10.7865 7.61147 10.7825C7.61547 10.7785 7.61947 10.7745 7.62348 10.7705C7.62749 10.7665 7.63151 10.7625 7.63554 10.7585C7.63957 10.7544 7.64361 10.7504 7.64766 10.7463C7.6517 10.7423 7.65576 10.7382 7.65982 10.7342C7.66389 10.7301 7.66796 10.726 7.67204 10.722C7.68876 10.7052 7.67984 10.7142 7.69662 10.6974C7.70074 10.6933 7.70486 10.6891 7.70899 10.685C7.71313 10.6809 7.71726 10.6767 7.72141 10.6726C7.72556 10.6684 7.72972 10.6643 7.73388 10.6601C7.73805 10.6559 7.74222 10.6518 7.7464 10.6476C7.75058 10.6434 7.75477 10.6392 7.75897 10.635C7.76317 10.6308 7.76737 10.6266 7.77159 10.6224C7.7758 10.6182 7.78002 10.614 7.78426 10.6097C7.78849 10.6055 7.79272 10.6013 7.79697 10.597C7.82452 10.5695 7.82051 10.5735 7.84832 10.5457C7.87492 10.5191 7.84761 10.5464 7.87428 10.5197C7.87862 10.5154 7.88297 10.511 7.88733 10.5067C7.89169 10.5023 7.89605 10.4979 7.90042 10.4936C7.90918 10.4848 7.91794 10.4761 7.92676 10.4672C7.93116 10.4628 7.93558 10.4584 7.94 10.454C7.94442 10.4496 7.94884 10.4452 7.95328 10.4407C7.9642 10.4298 7.99569 10.3983 8.00686 10.3871C8.013 10.381 8.02772 10.3663 8.03392 10.3601C8.04293 10.3511 8.05209 10.3419 8.06116 10.3328C8.12958 10.2644 8.10249 10.2915 8.17183 10.2222C8.20855 10.1854 8.16313 10.2309 8.19991 10.1941C8.20655 10.1874 8.22148 10.1725 8.22817 10.1658C8.25154 10.1425 8.23316 10.1608 8.25658 10.1374C8.26067 10.1333 8.28102 10.113 8.28516 10.1088C8.28994 10.1041 8.29472 10.0993 8.29951 10.0945C8.3043 10.0897 8.30909 10.0849 8.3139 10.0801C8.32349 10.0705 8.33314 10.0609 8.34279 10.0512C8.38747 10.0065 8.35616 10.0378 8.40104 9.99296C8.40662 9.98737 8.42475 9.96924 8.43039 9.96361C8.43529 9.9587 8.4402 9.95379 8.44512 9.94888C8.45003 9.94396 8.45496 9.93904 8.45989 9.93411C8.48451 9.90949 8.46486 9.92913 8.48953 9.90446C8.49448 9.89951 8.49944 9.89455 8.50441 9.88958C8.50937 9.88462 8.51435 9.87965 8.51932 9.87467C8.54631 9.84768 8.55216 9.84184 8.57933 9.81466C8.62858 9.76542 8.56025 9.83374 8.60954 9.78445C8.61482 9.77917 8.63457 9.75942 8.63989 9.7541C8.72159 9.6724 8.80298 9.59101 8.88739 9.5066C8.92652 9.46747 8.91122 9.48278 8.9505 9.44349C8.96158 9.43241 9.00283 9.39116 9.01407 9.37993C9.07103 9.32297 9.02097 9.37302 9.07808 9.31592C9.10843 9.28557 9.11203 9.28196 9.14252 9.25147C9.15685 9.23715 9.19291 9.20108 9.20737 9.18662C9.22464 9.16935 9.22265 9.17134 9.23995 9.15404C9.2706 9.12339 9.24194 9.15205 9.27263 9.12137C9.27808 9.11591 9.28354 9.11046 9.289 9.10499C9.29446 9.09953 9.29993 9.09407 9.3054 9.0886C9.30921 9.08479 9.33442 9.05957 9.33826 9.05573C9.34375 9.05025 9.34923 9.04476 9.35473 9.03927C9.36022 9.03377 9.36572 9.02828 9.37122 9.02278C9.37672 9.01728 9.38222 9.01177 9.38773 9.00627C9.39324 9.00076 9.39875 8.99525 9.40426 8.98973C9.58249 8.8115 9.75919 8.6348 9.94355 8.45044C9.99809 8.39591 10.0261 8.36788 10.0809 8.31307C10.0867 8.30733 10.0924 8.30158 10.0982 8.29584C10.1039 8.29009 10.1096 8.28435 10.1154 8.2786C10.1481 8.24589 10.1172 8.2768 10.1499 8.24408C10.1558 8.23819 10.2131 8.18087 10.2191 8.17492C10.2248 8.16915 10.2306 8.16338 10.2364 8.15761C10.2422 8.15183 10.2479 8.14606 10.2537 8.14028C10.2595 8.1345 10.2653 8.12873 10.271 8.12295C10.2768 8.11716 10.2826 8.11138 10.2884 8.1056C10.3241 8.06992 10.2874 8.10658 10.3231 8.07088C10.3384 8.0556 10.3426 8.05143 10.3579 8.03613C10.3612 8.03276 10.424 7.96995 10.4275 7.96654C10.4506 7.94337 10.474 7.92003 10.4972 7.89683C10.503 7.89101 10.5088 7.8852 10.5146 7.87939C10.5204 7.87357 10.5262 7.86775 10.5321 7.86194C10.5501 7.8439 10.5489 7.84506 10.567 7.82702C10.5682 7.8258 10.6356 7.75838 10.6369 7.75713C10.7106 7.68342 10.703 7.69095 10.7768 7.61717C10.7957 7.59834 10.828 7.56598 10.8469 7.54714C10.8527 7.5413 10.8585 7.53546 10.8644 7.52962C10.8702 7.52378 10.876 7.51795 10.8819 7.51211C10.8877 7.50627 10.8936 7.50043 10.8994 7.49459C10.9052 7.48876 10.9111 7.48292 10.9169 7.47708C10.9228 7.47124 10.9286 7.4654 10.9344 7.45956C10.9403 7.45372 10.9461 7.44789 10.9519 7.44205C10.9578 7.43621 10.9636 7.43037 10.9695 7.42453C10.9753 7.41869 10.9811 7.41286 10.987 7.40702C11.012 7.38199 10.997 7.39702 11.022 7.37199C11.0278 7.36616 11.0337 7.36032 11.0395 7.35448C11.0453 7.34864 11.0512 7.34281 11.057 7.33697C11.0629 7.33114 11.0687 7.3253 11.0745 7.31946C11.0804 7.31363 11.0862 7.30779 11.092 7.30196C11.0998 7.29423 11.1193 7.27468 11.127 7.26695C11.1748 7.21916 11.1142 7.27976 11.162 7.23196C11.1679 7.22613 11.1737 7.2203 11.1795 7.21447C11.1854 7.20864 11.1912 7.20281 11.197 7.19698C11.2265 7.1675 11.3074 7.08662 11.3368 7.05723C11.3609 7.03307 11.4521 6.94187 11.4761 6.91785C11.502 6.89197 11.485 6.90895 11.5109 6.88308C11.5167 6.87729 11.5225 6.8715 11.5283 6.86571C11.5341 6.85992 11.5399 6.85413 11.5457 6.84834C11.5564 6.83757 11.5696 6.82439 11.5804 6.81363C11.5861 6.80785 11.5919 6.80207 11.5977 6.7963C11.6035 6.79052 11.6093 6.78474 11.615 6.77897C11.6448 6.74919 11.6545 6.73947 11.6842 6.70975C11.69 6.70399 11.6958 6.69823 11.7015 6.69247C11.7073 6.68671 11.713 6.68096 11.7188 6.6752C11.7245 6.66945 11.7303 6.6637 11.736 6.65795C11.7418 6.6522 11.7475 6.64645 11.7533 6.6407C11.7648 6.6292 11.7763 6.61774 11.7877 6.60625C11.8054 6.5886 11.8045 6.58947 11.8222 6.57184C11.8258 6.56818 11.8872 6.50678 11.8908 6.50319C11.9833 6.41065 12.0719 6.32211 12.1631 6.2309C12.2037 6.19031 12.1563 6.23773 12.1968 6.19716C12.2024 6.19155 12.2081 6.18593 12.2137 6.18032C12.2193 6.17471 12.2249 6.1691 12.2305 6.1635C12.2309 6.16307 12.2637 6.1303 12.2641 6.1299C12.3008 6.09321 12.2609 6.13305 12.2976 6.09639C12.3084 6.0856 12.4205 5.97347 12.4309 5.96313C12.4534 5.94056 12.4745 5.91945 12.497 5.897C12.5192 5.87484 12.5078 5.88621 12.5299 5.86408C12.5354 5.8586 12.5409 5.85312 12.5463 5.84765C12.5518 5.84218 12.5573 5.83671 12.5627 5.83124C12.5988 5.79524 12.6576 5.73635 12.6931 5.70087C12.6985 5.69547 12.7039 5.69007 12.7093 5.68468C12.7147 5.67929 12.7201 5.67391 12.7255 5.66852C12.7309 5.66314 12.7362 5.65777 12.7416 5.65239C12.747 5.64702 12.7523 5.64165 12.7577 5.63629C12.7635 5.63052 12.7841 5.60988 12.7898 5.60415C12.7952 5.5988 12.8005 5.59346 12.8059 5.58812C12.8112 5.58279 12.8165 5.57745 12.8219 5.57213C12.8644 5.52958 12.8113 5.58272 12.8538 5.54021C12.8568 5.53715 12.8826 5.51143 12.8856 5.50841C12.8909 5.50311 12.8962 5.49783 12.9014 5.49255C12.9067 5.48726 12.912 5.48199 12.9173 5.47672C12.9226 5.47144 12.9278 5.46618 12.9331 5.46091C12.9383 5.45565 12.9436 5.45039 12.9489 5.44514C12.9541 5.43989 12.9594 5.43464 12.9646 5.4294C12.9698 5.42416 12.9751 5.41892 12.9803 5.41369C12.9855 5.40845 12.9908 5.40322 12.996 5.398C13.0012 5.39278 13.0064 5.38756 13.0116 5.38235C13.0127 5.3813 13.0418 5.35215 13.0429 5.35113C13.0481 5.34594 13.0532 5.34075 13.0584 5.33557C13.0636 5.33039 13.0688 5.32521 13.074 5.32004C13.084 5.31 13.0949 5.29908 13.1049 5.28908C13.1101 5.28393 13.1152 5.27878 13.1204 5.27364C13.1255 5.2685 13.1306 5.26337 13.1358 5.25824C13.1875 5.20654 13.1148 5.27919 13.1665 5.22753C13.1971 5.1969 13.1664 5.22755 13.197 5.19696L12.1364 4.1363C12.1363 4.13637 12.1059 4.16675 12.1058 4.16687C12.1007 4.17198 12.0956 4.17709 12.0905 4.18221C12.0853 4.18733 12.0802 4.19245 12.0751 4.19758C12.07 4.20271 12.0648 4.20784 12.0597 4.21298C12.0546 4.21812 12.0494 4.22327 12.0443 4.22842C12.0242 4.24845 12.0334 4.2393 12.0133 4.25938C12.0081 4.26455 12.0029 4.26973 11.9978 4.27491C11.9926 4.28009 11.9874 4.28528 11.9822 4.29047C11.94 4.33264 11.9932 4.27948 11.951 4.32169C11.9458 4.3269 11.9406 4.33212 11.9353 4.33734C11.9301 4.34256 11.9249 4.34779 11.9196 4.35303C11.9166 4.35612 11.8913 4.38135 11.8882 4.38448C11.838 4.43472 11.8753 4.39736 11.8249 4.44775C11.8196 4.45304 11.8143 4.45833 11.809 4.46363C11.8037 4.46893 11.7984 4.47424 11.7931 4.47955C11.7878 4.48486 11.7825 4.49017 11.7772 4.49549C11.7719 4.50081 11.7665 4.50614 11.7612 4.51147C11.7559 4.51679 11.7505 4.52213 11.7452 4.52746C11.7399 4.5328 11.7345 4.53814 11.7292 4.54349C11.7164 4.55627 11.7099 4.56281 11.697 4.57562C11.6917 4.58099 11.6863 4.58636 11.6809 4.59173C11.6756 4.5971 11.6702 4.60248 11.6648 4.60786C11.6594 4.61325 11.654 4.61863 11.6487 4.62402C11.6433 4.62941 11.6379 4.63481 11.6325 4.64021C11.6037 4.66901 11.6289 4.64382 11.6 4.67265C11.5946 4.67807 11.5892 4.68349 11.5838 4.68891C11.5783 4.69434 11.5729 4.69977 11.5675 4.7052C11.5298 4.74284 11.5399 4.73281 11.5021 4.77058C11.4966 4.77605 11.4912 4.78152 11.4857 4.78699C11.4802 4.79246 11.4747 4.79794 11.4693 4.80342C11.4686 4.80403 11.437 4.83571 11.4363 4.83634C11.4023 4.87039 11.4044 4.86831 11.3702 4.90247C11.3599 4.91281 11.2477 5.02494 11.2369 5.03573C11.1686 5.10407 11.1712 5.1015 11.1024 5.17024C11.057 5.21564 11.114 5.15863 11.0686 5.20405C11.0544 5.21824 11.049 5.22372 11.0347 5.23793C11.0206 5.25204 10.981 5.29169 10.9668 5.30588C10.8891 5.38354 10.9081 5.36456 10.8301 5.44253C10.7672 5.50549 10.8245 5.44815 10.7615 5.51118C10.7593 5.51333 10.6948 5.57783 10.6926 5.58004C10.6869 5.58579 10.6811 5.59154 10.6754 5.59729C10.6696 5.60304 10.6639 5.60879 10.6581 5.61454C10.6437 5.62901 10.6381 5.63461 10.6236 5.64909C10.6232 5.64952 10.5894 5.68323 10.589 5.68368C10.5732 5.69951 10.5702 5.70246 10.5544 5.71831C10.5486 5.72408 10.5428 5.72986 10.537 5.73564C10.5313 5.74141 10.5255 5.74719 10.5197 5.75297C10.5186 5.75406 10.4861 5.78658 10.485 5.78768C10.4596 5.81312 10.4757 5.79697 10.4503 5.82242C10.4445 5.82821 10.4387 5.83401 10.4329 5.8398C10.4271 5.8456 10.4213 5.85139 10.4155 5.85719C10.4097 5.86299 10.4039 5.86879 10.3981 5.87459C10.3923 5.88039 10.3865 5.88619 10.3807 5.892C10.3749 5.8978 10.3691 5.9036 10.3633 5.90941C10.3575 5.91521 10.3517 5.92102 10.3458 5.92683C10.34 5.93264 10.3342 5.93844 10.3284 5.94425C10.3226 5.95006 10.3168 5.95588 10.311 5.96169C10.2895 5.98318 10.2976 5.97507 10.2761 5.99657C10.2695 6.00313 10.143 6.12966 10.1364 6.13632C10.1305 6.14215 10.1247 6.14798 10.1189 6.15381C10.113 6.15964 10.1072 6.16547 10.1014 6.1713C10.0693 6.20338 10.0985 6.17421 10.0664 6.20629C10.0272 6.24544 10.0705 6.20215 10.0314 6.2413C10.0255 6.24713 10.0197 6.25297 10.0139 6.2588C10.008 6.26464 10.0022 6.27048 9.99636 6.27631C9.91659 6.35608 9.93605 6.33663 9.85625 6.41642C9.85042 6.42226 9.84458 6.4281 9.83874 6.43393C9.8329 6.43977 9.82706 6.44561 9.82122 6.45145C9.81539 6.45729 9.80955 6.46312 9.80371 6.46896C9.79787 6.4748 9.79204 6.48064 9.7862 6.48648C9.78036 6.49231 9.77452 6.49815 9.76869 6.50399C9.76285 6.50982 9.75701 6.51566 9.75117 6.5215C9.73951 6.53316 9.72782 6.54486 9.71616 6.55651C9.71346 6.55921 9.64884 6.62383 9.64615 6.62652C9.63837 6.63431 9.58397 6.6887 9.5762 6.69647C9.57496 6.69772 9.50753 6.76514 9.50631 6.76636C9.45607 6.8166 9.48672 6.78596 9.43651 6.83617C9.30548 6.96719 9.28875 6.98393 9.15841 7.11426C9.04786 7.22482 8.99242 7.28025 8.88289 7.38978C8.87718 7.39549 8.87148 7.4012 8.86578 7.4069C8.86007 7.4126 8.85438 7.4183 8.84868 7.42399C8.79865 7.47402 8.86454 7.40814 8.81453 7.45815C8.81001 7.46266 8.78493 7.48774 8.78044 7.49224C8.77476 7.49791 8.76909 7.50359 8.76341 7.50926C8.75774 7.51493 8.75207 7.5206 8.74641 7.52627C8.70246 7.57021 8.7224 7.55027 8.67854 7.59413C8.65538 7.6173 8.66785 7.60482 8.64471 7.62796C8.62339 7.64928 8.63225 7.64043 8.61095 7.66173C8.54778 7.7249 8.40507 7.8676 8.3436 7.92907C8.31809 7.95458 8.30299 7.96968 8.2776 7.99507C8.27376 7.99891 8.24855 8.02413 8.24474 8.02794C8.23927 8.03341 8.2338 8.03887 8.22834 8.04433C8.22288 8.0498 8.21742 8.05525 8.21197 8.06071C8.18128 8.09139 8.20994 8.06273 8.17929 8.09338C8.17385 8.09882 8.16842 8.10425 8.16299 8.10968C8.15756 8.11511 8.15214 8.12054 8.14671 8.12596C8.1031 8.16957 8.12534 8.14734 8.08186 8.19081C8.07647 8.1962 8.07109 8.20158 8.06571 8.20696C8.06033 8.21234 8.05496 8.21772 8.04959 8.22309C8.04422 8.22846 8.03885 8.23382 8.03349 8.23918C8.02813 8.24455 8.02277 8.2499 8.01742 8.25526C7.96031 8.31236 8.01037 8.26231 7.95341 8.31927C7.9522 8.32047 7.89089 8.38178 7.88984 8.38283C7.88456 8.38811 7.87929 8.39339 7.87402 8.39865C7.86875 8.40392 7.86349 8.40919 7.85823 8.41445C7.85194 8.42073 7.83298 8.43969 7.82673 8.44594C7.74234 8.53033 7.66091 8.61176 7.57924 8.69344C7.57391 8.69876 7.55416 8.71851 7.54888 8.72379C7.49959 8.77308 7.56792 8.70476 7.51867 8.754C7.51365 8.75903 7.50863 8.76404 7.50362 8.76906C7.4986 8.77407 7.4936 8.77908 7.4886 8.78408C7.4836 8.78908 7.4786 8.79407 7.47361 8.79906C7.46862 8.80405 7.46364 8.80903 7.45866 8.81401C7.42677 8.8459 7.46071 8.81196 7.42887 8.8438C7.4042 8.86847 7.42385 8.84883 7.39923 8.87345C7.38627 8.8864 7.38263 8.89004 7.36973 8.90295C7.36409 8.90858 7.34596 8.92671 7.34038 8.9323C7.32844 8.94423 7.32306 8.94961 7.31118 8.9615C7.28803 8.98465 7.30523 8.96745 7.28213 8.99054C7.24018 9.0325 7.26624 9.00643 7.2245 9.04817C7.22036 9.05231 7.20001 9.07267 7.19592 9.07675C7.16693 9.10575 7.19645 9.07622 7.16751 9.10517C7.13878 9.1339 7.16793 9.10474 7.13925 9.13342C7.13456 9.13811 7.12987 9.1428 7.12519 9.14748C7.12051 9.15216 7.11583 9.15684 7.11117 9.16151C7.07373 9.19894 7.03702 9.23565 7.0005 9.27218C6.99594 9.27673 6.99139 9.28128 6.98686 9.28582C6.98232 9.29036 6.97778 9.29489 6.97326 9.29941C6.94431 9.32836 6.97509 9.29758 6.9462 9.32647C6.92152 9.35116 6.94394 9.32873 6.91932 9.35335C6.91485 9.35782 6.9104 9.36228 6.90595 9.36673C6.90149 9.37118 6.89705 9.37562 6.89262 9.38006C6.88818 9.38449 6.88375 9.38892 6.87934 9.39334C6.87492 9.39776 6.8705 9.40217 6.8661 9.40657C6.84346 9.42922 6.86234 9.41033 6.83976 9.43291C6.83368 9.439 6.79349 9.47918 6.78766 9.48502C6.78335 9.48933 6.77904 9.49363 6.77475 9.49792C6.77045 9.50222 6.76617 9.50651 6.76189 9.51079C6.75901 9.51366 6.73912 9.53355 6.73631 9.53636C6.73507 9.5376 6.68672 9.58595 6.68574 9.58693C6.68156 9.59111 6.67739 9.59529 6.67322 9.59945C6.66906 9.60362 6.6649 9.60777 6.66075 9.61192C6.64649 9.62618 6.65016 9.62251 6.63596 9.63671C6.62407 9.64861 6.62321 9.64946 6.61138 9.66129C6.6073 9.66538 6.60323 9.66945 6.59916 9.67351C6.5951 9.67757 6.59104 9.68163 6.587 9.68568C6.58295 9.68972 6.57891 9.69376 6.57488 9.69779C6.57085 9.70182 6.56683 9.70584 6.56282 9.70985C6.53091 9.74176 6.57069 9.70198 6.53885 9.73382C6.5037 9.76898 6.55018 9.72249 6.51509 9.75758C6.51115 9.76152 6.50722 9.76545 6.5033 9.76938C6.49937 9.7733 6.49546 9.77722 6.49155 9.78112C6.44109 9.83158 6.44882 9.82385 6.39953 9.87315C6.39921 9.87346 6.35485 9.91782 6.35484 9.91784C6.30352 9.96915 6.36206 9.91061 6.31105 9.96162C6.30744 9.96523 6.30384 9.96883 6.30025 9.97242C6.29666 9.97602 6.29308 9.9796 6.2895 9.98317C6.27912 9.99355 6.27849 9.99419 6.26819 10.0045C6.26465 10.008 6.26113 10.0115 6.25761 10.0151C6.2541 10.0186 6.2506 10.0221 6.2471 10.0256C6.24461 10.0281 6.22867 10.044 6.22625 10.0464C6.19961 10.0731 6.2116 10.0611 6.18527 10.0874C6.17224 10.1004 6.1781 10.0946 6.16515 10.1075C6.14418 10.1285 6.16615 10.1065 6.14526 10.1274C6.10933 10.1633 6.14183 10.1308 6.10623 10.1664C6.08584 10.1868 6.08825 10.1844 6.0682 10.2045C6.05761 10.2151 6.04142 10.2313 6.03118 10.2415C6.01905 10.2536 6.00697 10.2657 5.99519 10.2775C5.94047 10.3322 5.91082 10.3619 5.86184 10.4108C5.82809 10.4446 5.86462 10.408 5.83124 10.4414C5.82122 10.4515 5.8114 10.4613 5.80176 10.4709C5.7686 10.5041 5.82051 10.4522 5.78745 10.4852C5.76946 10.5032 5.79131 10.4814 5.77342 10.4993C5.77111 10.5016 5.76881 10.5039 5.76652 10.5062C5.76423 10.5084 5.76195 10.5107 5.75968 10.513C5.75742 10.5153 5.75517 10.5175 5.75292 10.5197C5.75068 10.522 5.74845 10.5242 5.74624 10.5264C5.70206 10.5706 5.738 10.5347 5.6954 10.5773C5.68899 10.5837 5.68976 10.5829 5.68344 10.5892C5.67858 10.5941 5.67655 10.5961 5.67179 10.6009C5.67049 10.6022 5.65027 10.6224 5.64938 10.6233C5.60253 10.6701 5.6535 10.6192 5.60831 10.6644C5.60097 10.6717 5.59657 10.6761 5.58966 10.683C5.56887 10.7038 5.59265 10.68 5.57229 10.7004C5.56198 10.7107 5.55004 10.7226 5.54148 10.7312C5.52953 10.7431 5.52613 10.7465 5.51598 10.7567C5.47585 10.7968 5.51414 10.7585 5.48145 10.7912C5.48118 10.7915 5.47886 10.7938 5.47871 10.794C5.47829 10.7944 5.47787 10.7948 5.47748 10.7952C5.47708 10.7956 5.4767 10.796 5.47634 10.7963C5.46136 10.8113 5.48918 10.7835 5.47432 10.7984C5.47287 10.7998 5.47399 10.7987 5.47267 10.8C5.47203 10.8006 5.47059 10.8021 5.47045 10.8022C5.47021 10.8025 5.47002 10.8027 5.4699 10.8028C5.46983 10.8028 5.46979 10.8029 5.46976 10.8029C5.46973 10.8029 5.46971 10.803 6.00004 11.3333Z" fill="white"/>
</svg>
