<svg width="32" height="32" viewBox="0 0 32 32" fill="none" xmlns="http://www.w3.org/2000/svg">
<path d="M9.33333 12.0003L10.0404 11.2932C9.64992 10.9027 9.01675 10.9027 8.62623 11.2932L9.33333 12.0003ZM17.3333 14.667L18.0404 13.9599C17.6499 13.5694 17.0168 13.5694 16.6262 13.9599L17.3333 14.667ZM11.2929 19.2932C10.9024 19.6837 10.9024 20.3169 11.2929 20.7074C11.6834 21.098 12.3166 21.098 12.7071 20.7074L11.2929 19.2932ZM25.9596 24.7074C26.3501 25.098 26.9832 25.098 27.3738 24.7074C27.7643 24.3169 27.7643 23.6837 27.3738 23.2932L25.9596 24.7074ZM6.66667 7.66699H25.3333V5.66699H6.66667V7.66699ZM25.3333 24.3337H6.66667V26.3337H25.3333V24.3337ZM27 9.33366V22.667H29V9.33366H27ZM5 17.3337V9.33366H3V17.3337H5ZM8.62623 12.7074L13.9596 18.0408L15.3738 16.6266L10.0404 11.2932L8.62623 12.7074ZM15.3738 18.0408L18.0404 15.3741L16.6262 13.9599L13.9596 16.6266L15.3738 18.0408ZM13.9596 16.6266L11.2929 19.2932L12.7071 20.7074L15.3738 18.0408L13.9596 16.6266ZM16.6262 15.3741L25.9596 24.7074L27.3738 23.2932L18.0404 13.9599L16.6262 15.3741ZM4.70711 18.0408L10.0404 12.7074L8.62623 11.2932L3.29289 16.6266L4.70711 18.0408ZM5 22.667V17.3337H3V22.667H5ZM22.0404 12.6266C21.6946 12.2807 21.6946 11.72 22.0404 11.3741L20.6262 9.95989C19.4993 11.0868 19.4993 12.9139 20.6262 14.0408L22.0404 12.6266ZM20.6262 14.0408C21.7531 15.1677 23.5802 15.1677 24.7071 14.0408L23.2929 12.6266C22.947 12.9724 22.3863 12.9724 22.0404 12.6266L20.6262 14.0408ZM6.66667 24.3337C5.74619 24.3337 5 23.5875 5 22.667H3C3 24.692 4.64162 26.3337 6.66667 26.3337V24.3337ZM25.3333 26.3337C27.3584 26.3337 29 24.692 29 22.667H27C27 23.5875 26.2538 24.3337 25.3333 24.3337V26.3337ZM23.2929 11.3741C23.6387 11.72 23.6387 12.2807 23.2929 12.6266L24.7071 14.0408C25.834 12.9139 25.834 11.0868 24.7071 9.95989L23.2929 11.3741ZM25.3333 7.66699C26.2538 7.66699 27 8.41318 27 9.33366H29C29 7.30861 27.3584 5.66699 25.3333 5.66699V7.66699ZM22.0404 11.3741C22.3863 11.0282 22.947 11.0282 23.2929 11.3741L24.7071 9.95989C23.5802 8.83298 21.7531 8.83298 20.6262 9.95989L22.0404 11.3741ZM6.66667 5.66699C4.64162 5.66699 3 7.30862 3 9.33366H5C5 8.41319 5.74619 7.66699 6.66667 7.66699V5.66699Z" fill="#D2D4D9"/>
</svg>
