<svg width="14" height="20" viewBox="0 0 14 20" fill="none" xmlns="http://www.w3.org/2000/svg">
<path d="M6.25 15C6.25 15.4142 6.58578 15.75 7 15.75C7.41421 15.75 7.75 15.4142 7.75 15H6.25ZM3.75 8.52779C3.75 6.99714 3.75729 5.24505 4.21184 3.87508C4.43434 3.20449 4.74708 2.68292 5.16921 2.3292C5.57918 1.98565 6.15188 1.75 7 1.75V0.25C5.84812 0.25 4.92082 0.580321 4.20579 1.17949C3.50291 1.76847 3.06566 2.56635 2.78816 3.40271C2.24271 5.04663 2.25 7.05843 2.25 8.52779H3.75ZM7 1.75C7.84812 1.75 8.42081 1.98565 8.83079 2.3292C9.25291 2.68292 9.56566 3.20449 9.78816 3.87508C10.2427 5.24505 10.25 6.99714 10.25 8.52779L11.75 8.52779C11.75 7.05843 11.7573 5.04663 11.2118 3.40271C10.9343 2.56635 10.4971 1.76847 9.7942 1.17949C9.07918 0.580321 8.15188 0.25 7 0.25V1.75ZM7 11.75C7.13807 11.75 7.25 11.8619 7.25 12H8.75C8.75 11.0335 7.9665 10.25 7 10.25V11.75ZM7.25 12C7.25 12.044 7.22964 12.1067 7.16666 12.1675C7.09996 12.2318 7.03079 12.25 7 12.25V13.75C7.88891 13.75 8.75 12.9914 8.75 12H7.25ZM7 12.25C6.96921 12.25 6.90003 12.2318 6.83334 12.1675C6.77036 12.1067 6.75 12.044 6.75 12H5.25C5.25 12.9914 6.11109 13.75 7 13.75V12.25ZM6.75 12C6.75 11.8619 6.86193 11.75 7 11.75V10.25C6.0335 10.25 5.25 11.0335 5.25 12H6.75ZM6.25 13V15H7.75V13H6.25ZM12.25 13C12.25 15.8995 9.8995 18.25 7 18.25V19.75C10.7279 19.75 13.75 16.7279 13.75 13H12.25ZM7 18.25C4.10051 18.25 1.75 15.8995 1.75 13H0.25C0.25 16.7279 3.27208 19.75 7 19.75V18.25ZM1.75 13C1.75 10.1005 4.10051 7.75 7 7.75V6.25C3.27208 6.25 0.25 9.27208 0.25 13H1.75ZM7 7.75C9.8995 7.75 12.25 10.1005 12.25 13H13.75C13.75 9.27208 10.7279 6.25 7 6.25V7.75Z" fill="#D2D4D9"/>
</svg>
