<svg width="31" height="31" viewBox="0 0 31 31" fill="none" xmlns="http://www.w3.org/2000/svg">
<path d="M7.74106 12.6732C11.8179 10.0251 15.7172 8.37412 18.1416 8.10678C18.3228 8.08149 18.5185 8.06704 18.7323 8.07066C18.9461 8.06704 19.1418 8.08149 19.323 8.10678C21.7437 8.37051 25.6467 10.0251 29.7235 12.6732C29.9554 12.8249 30.1838 12.9766 30.4121 13.1284V0H0.000454275V19.2012C1.67469 17.1962 4.42521 14.8263 7.74106 12.6732Z" fill="white"/>
<path d="M18.7318 9.39637C16.3365 9.8624 12.5495 11.853 8.6502 14.8587C4.06599 18.3955 0.703033 22.2755 0 24.6165V31H30.4116V16.1448C29.9006 15.7113 29.3643 15.2814 28.8171 14.8587C24.9178 11.853 21.1272 9.8624 18.7318 9.39637Z" fill="white"/>
</svg>
