<svg width="112" height="31" viewBox="0 0 112 31" fill="none" xmlns="http://www.w3.org/2000/svg">
<path d="M7.74106 12.6732C11.8179 10.0251 15.7172 8.37412 18.1416 8.10678C18.3228 8.08149 18.5185 8.06704 18.7323 8.07066C18.9461 8.06704 19.1418 8.08149 19.323 8.10678C21.7437 8.37051 25.6467 10.0251 29.7235 12.6732C29.9554 12.8249 30.1838 12.9766 30.4121 13.1284V0H0.000454275V19.2012C1.67469 17.1962 4.42521 14.8263 7.74106 12.6732Z" fill="#19181B"/>
<path d="M18.7318 9.39637C16.3365 9.8624 12.5495 11.853 8.6502 14.8587C4.06599 18.3955 0.703033 22.2755 0 24.6165V31H30.4116V16.1448C29.9006 15.7113 29.3643 15.2814 28.8171 14.8587C24.9178 11.853 21.1272 9.8624 18.7318 9.39637Z" fill="#19181B"/>
<path d="M39.3302 6.6907C39.3302 7.30375 39.4026 7.85669 39.5473 8.34953C39.704 8.84237 39.9211 9.26909 40.1984 9.62971C40.4878 9.9783 40.8375 10.2488 41.2474 10.4411C41.6574 10.6334 42.1277 10.7296 42.6582 10.7296C43.1767 10.7296 43.6409 10.6334 44.0509 10.4411C44.4729 10.2488 44.8226 9.9783 45.0999 9.62971C45.3893 9.26909 45.6064 8.84237 45.7511 8.34953C45.9078 7.85669 45.9862 7.30375 45.9862 6.6907C45.9862 6.07766 45.9078 5.52471 45.7511 5.03188C45.6064 4.52701 45.3893 4.10029 45.0999 3.75169C44.8226 3.39108 44.4729 3.11461 44.0509 2.92228C43.6409 2.72995 43.1767 2.63379 42.6582 2.63379C42.1277 2.63379 41.6574 2.73596 41.2474 2.94031C40.8375 3.13264 40.4878 3.40911 40.1984 3.76972C39.9211 4.11832 39.704 4.54505 39.5473 5.04991C39.4026 5.54275 39.3302 6.08968 39.3302 6.6907ZM48.8982 6.6907C48.8982 7.76052 48.7354 8.70413 48.4098 9.52153C48.0963 10.3269 47.6622 11.0061 47.1076 11.559C46.5529 12.0999 45.8897 12.5086 45.118 12.7851C44.3584 13.0616 43.5384 13.1998 42.6582 13.1998C41.8021 13.1998 40.9942 13.0616 40.2346 12.7851C39.4749 12.5086 38.8118 12.0999 38.245 11.559C37.6783 11.0061 37.2322 10.3269 36.9066 9.52153C36.5811 8.70413 36.4183 7.76052 36.4183 6.6907C36.4183 5.62088 36.5871 4.68328 36.9247 3.87791C37.2623 3.06052 37.7145 2.37535 38.2812 1.82241C38.86 1.26946 39.5232 0.854756 40.2708 0.578285C41.0304 0.301814 41.8262 0.163578 42.6582 0.163578C43.5143 0.163578 44.3222 0.301814 45.0818 0.578285C45.8415 0.854756 46.5047 1.26946 47.0714 1.82241C47.6381 2.37535 48.0843 3.06052 48.4098 3.87791C48.7354 4.68328 48.8982 5.62088 48.8982 6.6907Z" fill="#19181B"/>
<path d="M60.1228 0.45207V2.85016H56.3427V12.9474H53.5212V2.85016H49.741V0.45207H60.1228Z" fill="#19181B"/>
<path d="M64.6311 2.83213V4.88763H65.5536C66.482 4.88763 67.308 4.95975 68.0314 5.104C68.767 5.24824 69.3819 5.48264 69.8763 5.8072C70.3827 6.13175 70.7686 6.55247 71.0338 7.06935C71.2991 7.58623 71.4318 8.2173 71.4318 8.96257C71.4318 10.3449 70.9253 11.3787 69.9125 12.0639C68.9117 12.737 67.4768 13.0736 65.6078 13.0736C65.1014 13.0736 64.5226 13.0435 63.8715 12.9834C63.2324 12.9233 62.5873 12.8151 61.9362 12.6589V0.45207H70.2561V2.83213H64.6311ZM65.7525 10.6755C66.1263 10.6755 66.482 10.6515 66.8196 10.6034C67.1572 10.5553 67.4527 10.4711 67.7059 10.3509C67.9712 10.2187 68.1822 10.0444 68.3389 9.82805C68.4957 9.61168 68.5741 9.3292 68.5741 8.9806C68.5741 8.61999 68.5017 8.32549 68.357 8.0971C68.2123 7.86871 68.0073 7.6884 67.7421 7.55617C67.4768 7.42395 67.1512 7.3338 66.7654 7.28572C66.3795 7.23763 65.9454 7.21359 65.4631 7.21359H64.6311V10.6394C64.7638 10.6514 64.9205 10.6635 65.1014 10.6755C65.2943 10.6755 65.5113 10.6755 65.7525 10.6755Z" fill="#19181B"/>
<path d="M82.0919 12.9474C81.9593 12.5146 81.8086 12.0699 81.6398 11.6131C81.483 11.1563 81.3263 10.6995 81.1695 10.2428H76.2861C76.1293 10.6995 75.9666 11.1563 75.7977 11.6131C75.641 12.0699 75.4963 12.5146 75.3636 12.9474H72.4336C72.9039 11.6011 73.35 10.3569 73.772 9.215C74.194 8.07306 74.604 6.99722 75.0019 5.9875C75.4119 4.97778 75.8098 4.02215 76.1956 3.12062C76.5936 2.20706 77.0035 1.31754 77.4256 0.45207H80.1205C80.5304 1.31754 80.9344 2.20706 81.3323 3.12062C81.7302 4.02215 82.1281 4.97778 82.526 5.9875C82.936 6.99722 83.352 8.07306 83.774 9.215C84.196 10.3569 84.6422 11.6011 85.1124 12.9474H82.0919ZM78.7097 3.28289C78.6494 3.4632 78.559 3.70962 78.4384 4.02215C78.3178 4.33469 78.1792 4.6953 78.0224 5.104C77.8657 5.51269 77.6908 5.96346 77.4979 6.4563C77.317 6.94914 77.1301 7.46602 76.9372 8.00694H80.5003C80.3074 7.46602 80.1205 6.94914 79.9396 6.4563C79.7588 5.96346 79.5839 5.51269 79.4151 5.104C79.2583 4.6953 79.1197 4.33469 78.9991 4.02215C78.8785 3.70962 78.7821 3.4632 78.7097 3.28289Z" fill="#19181B"/>
<path d="M92.1147 13.1998C90.0769 13.1998 88.5215 12.6348 87.4483 11.5049C86.3872 10.375 85.8567 8.77025 85.8567 6.6907C85.8567 5.65694 86.0195 4.73737 86.345 3.932C86.6706 3.11461 87.1167 2.42944 87.6834 1.8765C88.2502 1.31154 88.9254 0.884808 89.7092 0.596316C90.4929 0.307824 91.343 0.163578 92.2594 0.163578C92.7899 0.163578 93.2723 0.20565 93.7064 0.289794C94.1404 0.361916 94.5203 0.45207 94.8458 0.560254C95.1714 0.656419 95.4427 0.758593 95.6597 0.866777C95.8768 0.974961 96.0335 1.0591 96.13 1.11921L95.3161 3.39108C94.9302 3.18673 94.4781 3.01243 93.9596 2.86819C93.4531 2.72394 92.8744 2.65182 92.2232 2.65182C91.7892 2.65182 91.3611 2.72394 90.9391 2.86819C90.5291 3.01243 90.1613 3.24683 89.8358 3.57139C89.5223 3.88392 89.2691 4.29261 89.0761 4.79748C88.8832 5.30234 88.7867 5.91538 88.7867 6.63661C88.7867 7.21359 88.847 7.75451 88.9676 8.25937C89.1002 8.75221 89.3052 9.17894 89.5826 9.53956C89.8719 9.90017 90.2457 10.1887 90.7039 10.405C91.1621 10.6094 91.7168 10.7116 92.3679 10.7116C92.7779 10.7116 93.1457 10.6875 93.4712 10.6394C93.7968 10.5913 94.0862 10.5373 94.3394 10.4772C94.5926 10.405 94.8157 10.3269 95.0086 10.2428C95.2015 10.1586 95.3764 10.0805 95.5331 10.0084L96.3108 12.2622C95.9129 12.5026 95.3522 12.719 94.6288 12.9113C93.9053 13.1036 93.0673 13.1998 92.1147 13.1998Z" fill="#19181B"/>
<path d="M107.605 8.85439C107.605 9.55158 107.466 10.1646 107.189 10.6935C106.924 11.2224 106.538 11.6672 106.031 12.0278C105.537 12.3884 104.928 12.6589 104.205 12.8392C103.493 13.0195 102.697 13.1096 101.817 13.1096C101.311 13.1096 100.732 13.0736 100.081 13.0015C99.4417 12.9293 98.7906 12.8151 98.1274 12.6589V0.45207H100.949V4.59914C101.082 4.58712 101.202 4.58111 101.311 4.58111C101.431 4.58111 101.558 4.58111 101.691 4.58111C103.656 4.58111 105.133 4.9297 106.122 5.62689C107.111 6.32408 107.605 7.39991 107.605 8.85439ZM109.178 0.45207H112V12.9474H109.178V0.45207ZM101.51 6.96116C101.449 6.96116 101.365 6.96116 101.256 6.96116C101.148 6.96116 101.045 6.96717 100.949 6.97919V10.7116C101.082 10.7236 101.232 10.7296 101.401 10.7296C101.57 10.7296 101.775 10.7296 102.016 10.7296C102.39 10.7296 102.74 10.6995 103.065 10.6394C103.391 10.5793 103.674 10.4772 103.915 10.3329C104.168 10.1887 104.361 9.99633 104.494 9.75592C104.639 9.51551 104.711 9.215 104.711 8.85439C104.711 8.12114 104.434 7.62229 103.879 7.35784C103.336 7.09339 102.547 6.96116 101.51 6.96116Z" fill="#19181B"/>
<path d="M38.3705 23.5957V29.1131C38.5996 29.1371 38.8709 29.1672 39.1844 29.2032C39.5099 29.2273 39.9018 29.2393 40.36 29.2393C40.9026 29.2393 41.4211 29.1972 41.9155 29.1131C42.4099 29.0289 42.8379 28.8787 43.1996 28.6623C43.5734 28.4459 43.8689 28.1574 44.0859 27.7968C44.315 27.4362 44.4295 26.9794 44.4295 26.4265C44.4295 25.8495 44.321 25.3807 44.104 25.0201C43.899 24.6475 43.5976 24.359 43.1996 24.1546C42.8138 23.9383 42.3435 23.794 41.7889 23.7219C41.2342 23.6377 40.6132 23.5957 39.9259 23.5957H38.3705ZM40.0887 22.5499C40.981 22.5499 41.7768 22.622 42.4762 22.7663C43.1755 22.9105 43.7603 23.1389 44.2306 23.4514C44.7129 23.7519 45.0807 24.1486 45.3339 24.6415C45.5871 25.1343 45.7137 25.7233 45.7137 26.4085C45.7137 27.7187 45.2555 28.6984 44.3391 29.3475C43.4227 29.9846 42.0783 30.3031 40.3058 30.3031C39.7993 30.3031 39.2507 30.2731 38.6599 30.213C38.0811 30.1649 37.5747 30.0807 37.1406 29.9605V17.6996H44.5923V18.7634H38.3705V22.5499H40.0887Z" fill="#19181B"/>
<path d="M56.6436 30.1949C56.4145 29.5819 56.1975 28.9929 55.9925 28.4279C55.7875 27.8629 55.5886 27.31 55.3957 26.7691H49.3004C49.0954 27.31 48.8904 27.8629 48.6855 28.4279C48.4805 28.9929 48.2695 29.5819 48.0524 30.1949H46.7683C47.2506 28.8967 47.7027 27.6886 48.1248 26.5707C48.5468 25.4408 48.9568 24.377 49.3547 23.3793C49.7646 22.3696 50.1686 21.4019 50.5665 20.4764C50.9644 19.5508 51.3864 18.6252 51.8326 17.6996H52.9178C53.3639 18.6252 53.7859 19.5508 54.1838 20.4764C54.5817 21.4019 54.9797 22.3696 55.3776 23.3793C55.7875 24.377 56.2035 25.4408 56.6256 26.5707C57.0476 27.6886 57.5058 28.8967 58.0002 30.1949H56.6436ZM52.339 19.106C51.8808 20.1398 51.4346 21.1916 51.0006 22.2614C50.5785 23.3312 50.1384 24.4852 49.6802 25.7233H55.0158C54.5576 24.4852 54.1115 23.3312 53.6774 22.2614C53.2433 21.1916 52.7972 20.1398 52.339 19.106Z" fill="#19181B"/>
<path d="M67.8326 17.6996H69.0625V30.1949H67.8326V24.1907H61.032V30.1949H59.802V17.6996H61.032V23.1269H67.8326V17.6996Z" fill="#19181B"/>
<path d="M79.9757 30.1949C79.5658 29.5699 79.1015 28.9508 78.5831 28.3378C78.0766 27.7247 77.5401 27.1477 76.9733 26.6068C76.4066 26.0659 75.8278 25.573 75.237 25.1283C74.6582 24.6835 74.0975 24.3109 73.5549 24.0104V30.1949H72.325V17.6996H73.5549V23.5236C74.0131 23.1149 74.5196 22.6461 75.0742 22.1172C75.6409 21.5762 76.1956 21.0353 76.7382 20.4944C77.2929 19.9535 77.8114 19.4366 78.2937 18.9437C78.776 18.4509 79.1618 18.0362 79.4512 17.6996H80.9343C80.5847 18.0723 80.1626 18.517 79.6683 19.0339C79.1739 19.5388 78.6494 20.0617 78.0947 20.6026C77.5401 21.1435 76.9854 21.6784 76.4307 22.2073C75.8881 22.7242 75.3998 23.181 74.9657 23.5776C75.3154 23.794 75.6892 24.0645 76.0871 24.389C76.497 24.7016 76.907 25.0502 77.317 25.4348C77.739 25.8074 78.149 26.2041 78.5469 26.6248C78.9568 27.0335 79.3367 27.4482 79.6863 27.869C80.0481 28.2897 80.3676 28.6984 80.645 29.095C80.9343 29.4917 81.1695 29.8583 81.3503 30.1949H79.9757Z" fill="#19181B"/>
</svg>
