<svg width="112" height="31" viewBox="0 0 112 31" fill="none" xmlns="http://www.w3.org/2000/svg">
<path d="M7.74204 12.6732C11.8189 10.0251 15.7182 8.37412 18.1426 8.10678C18.3238 8.08149 18.5195 8.06704 18.7333 8.07066C18.9471 8.06704 19.1428 8.08149 19.324 8.10678C21.7447 8.37051 25.6476 10.0251 29.7245 12.6732C29.9564 12.8249 30.1847 12.9766 30.413 13.1284V0H0.00143084V19.2012C1.67566 17.1962 4.42619 14.8263 7.74204 12.6732Z" fill="white"/>
<path d="M18.7328 9.39637C16.3374 9.8624 12.5505 11.853 8.65118 14.8587C4.06697 18.3955 0.704009 22.2755 0.000976562 24.6165V31H30.4126V16.1448C29.9016 15.7113 29.3653 15.2814 28.8181 14.8587C24.9188 11.853 21.1282 9.8624 18.7328 9.39637Z" fill="white"/>
<path d="M39.3312 6.6907C39.3312 7.30375 39.4036 7.85669 39.5483 8.34953C39.705 8.84237 39.9221 9.26909 40.1994 9.62971C40.4888 9.9783 40.8385 10.2488 41.2484 10.4411C41.6584 10.6334 42.1286 10.7296 42.6592 10.7296C43.1777 10.7296 43.6419 10.6334 44.0519 10.4411C44.4739 10.2488 44.8236 9.9783 45.1009 9.62971C45.3903 9.26909 45.6073 8.84237 45.752 8.34953C45.9088 7.85669 45.9872 7.30375 45.9872 6.6907C45.9872 6.07766 45.9088 5.52471 45.752 5.03188C45.6073 4.52701 45.3903 4.10029 45.1009 3.75169C44.8236 3.39108 44.4739 3.11461 44.0519 2.92228C43.6419 2.72995 43.1777 2.63379 42.6592 2.63379C42.1286 2.63379 41.6584 2.73596 41.2484 2.94031C40.8385 3.13264 40.4888 3.40911 40.1994 3.76972C39.9221 4.11832 39.705 4.54505 39.5483 5.04991C39.4036 5.54275 39.3312 6.08968 39.3312 6.6907ZM48.8991 6.6907C48.8991 7.76052 48.7364 8.70413 48.4108 9.52153C48.0973 10.3269 47.6632 11.0061 47.1085 11.559C46.5539 12.0999 45.8907 12.5086 45.119 12.7851C44.3594 13.0616 43.5394 13.1998 42.6592 13.1998C41.8031 13.1998 40.9952 13.0616 40.2356 12.7851C39.4759 12.5086 38.8127 12.0999 38.246 11.559C37.6793 11.0061 37.2332 10.3269 36.9076 9.52153C36.582 8.70413 36.4193 7.76052 36.4193 6.6907C36.4193 5.62088 36.5881 4.68328 36.9257 3.87791C37.2633 3.06052 37.7155 2.37535 38.2822 1.82241C38.861 1.26946 39.5241 0.854756 40.2717 0.578285C41.0314 0.301814 41.8272 0.163578 42.6592 0.163578C43.5153 0.163578 44.3232 0.301814 45.0828 0.578285C45.8425 0.854756 46.5056 1.26946 47.0724 1.82241C47.6391 2.37535 48.0852 3.06052 48.4108 3.87791C48.7364 4.68328 48.8991 5.62088 48.8991 6.6907Z" fill="white"/>
<path d="M60.1238 0.45207V2.85016H56.3437V12.9474H53.5221V2.85016H49.742V0.45207H60.1238Z" fill="white"/>
<path d="M64.6321 2.83213V4.88763H65.5545C66.483 4.88763 67.309 4.95975 68.0324 5.104C68.768 5.24824 69.3829 5.48264 69.8773 5.8072C70.3837 6.13175 70.7695 6.55247 71.0348 7.06935C71.3001 7.58623 71.4327 8.2173 71.4327 8.96257C71.4327 10.3449 70.9263 11.3787 69.9134 12.0639C68.9126 12.737 67.4778 13.0736 65.6088 13.0736C65.1024 13.0736 64.5236 13.0435 63.8725 12.9834C63.2334 12.9233 62.5883 12.8151 61.9372 12.6589V0.45207H70.2571V2.83213H64.6321ZM65.7535 10.6755C66.1273 10.6755 66.483 10.6515 66.8206 10.6034C67.1582 10.5553 67.4536 10.4711 67.7069 10.3509C67.9721 10.2187 68.1831 10.0444 68.3399 9.82805C68.4966 9.61168 68.575 9.3292 68.575 8.9806C68.575 8.61999 68.5027 8.32549 68.358 8.0971C68.2133 7.86871 68.0083 7.6884 67.743 7.55617C67.4778 7.42395 67.1522 7.3338 66.7663 7.28572C66.3805 7.23763 65.9464 7.21359 65.4641 7.21359H64.6321V10.6394C64.7647 10.6514 64.9215 10.6635 65.1024 10.6755C65.2953 10.6755 65.5123 10.6755 65.7535 10.6755Z" fill="white"/>
<path d="M82.0929 12.9474C81.9603 12.5146 81.8096 12.0699 81.6407 11.6131C81.484 11.1563 81.3272 10.6995 81.1705 10.2428H76.2871C76.1303 10.6995 75.9675 11.1563 75.7987 11.6131C75.642 12.0699 75.4973 12.5146 75.3646 12.9474H72.4346C72.9048 11.6011 73.351 10.3569 73.773 9.215C74.195 8.07306 74.605 6.99722 75.0029 5.9875C75.4129 4.97778 75.8108 4.02215 76.1966 3.12062C76.5945 2.20706 77.0045 1.31754 77.4265 0.45207H80.1215C80.5314 1.31754 80.9354 2.20706 81.3333 3.12062C81.7312 4.02215 82.1291 4.97778 82.527 5.9875C82.937 6.99722 83.353 8.07306 83.775 9.215C84.197 10.3569 84.6432 11.6011 85.1134 12.9474H82.0929ZM78.7107 3.28289C78.6504 3.4632 78.56 3.70962 78.4394 4.02215C78.3188 4.33469 78.1801 4.6953 78.0234 5.104C77.8666 5.51269 77.6918 5.96346 77.4989 6.4563C77.318 6.94914 77.1311 7.46602 76.9382 8.00694H80.5013C80.3084 7.46602 80.1215 6.94914 79.9406 6.4563C79.7597 5.96346 79.5849 5.51269 79.4161 5.104C79.2593 4.6953 79.1207 4.33469 79.0001 4.02215C78.8795 3.70962 78.783 3.4632 78.7107 3.28289Z" fill="white"/>
<path d="M92.1157 13.1998C90.0779 13.1998 88.5224 12.6348 87.4493 11.5049C86.3882 10.375 85.8577 8.77025 85.8577 6.6907C85.8577 5.65694 86.0204 4.73737 86.346 3.932C86.6716 3.11461 87.1177 2.42944 87.6844 1.8765C88.2511 1.31154 88.9264 0.884808 89.7101 0.596316C90.4939 0.307824 91.344 0.163578 92.2604 0.163578C92.7909 0.163578 93.2732 0.20565 93.7073 0.289794C94.1414 0.361916 94.5212 0.45207 94.8468 0.560254C95.1724 0.656419 95.4437 0.758593 95.6607 0.866777C95.8777 0.974961 96.0345 1.0591 96.131 1.11921L95.317 3.39108C94.9312 3.18673 94.479 3.01243 93.9605 2.86819C93.4541 2.72394 92.8753 2.65182 92.2242 2.65182C91.7901 2.65182 91.3621 2.72394 90.94 2.86819C90.5301 3.01243 90.1623 3.24683 89.8367 3.57139C89.5232 3.88392 89.27 4.29261 89.0771 4.79748C88.8842 5.30234 88.7877 5.91538 88.7877 6.63661C88.7877 7.21359 88.848 7.75451 88.9686 8.25937C89.1012 8.75221 89.3062 9.17894 89.5835 9.53956C89.8729 9.90017 90.2467 10.1887 90.7049 10.405C91.1631 10.6094 91.7178 10.7116 92.3689 10.7116C92.7789 10.7116 93.1466 10.6875 93.4722 10.6394C93.7978 10.5913 94.0871 10.5373 94.3404 10.4772C94.5936 10.405 94.8167 10.3269 95.0096 10.2428C95.2025 10.1586 95.3773 10.0805 95.5341 10.0084L96.3118 12.2622C95.9139 12.5026 95.3532 12.719 94.6298 12.9113C93.9063 13.1036 93.0683 13.1998 92.1157 13.1998Z" fill="white"/>
<path d="M107.606 8.85439C107.606 9.55158 107.467 10.1646 107.19 10.6935C106.925 11.2224 106.539 11.6672 106.032 12.0278C105.538 12.3884 104.929 12.6589 104.206 12.8392C103.494 13.0195 102.698 13.1096 101.818 13.1096C101.312 13.1096 100.733 13.0736 100.082 13.0015C99.4427 12.9293 98.7916 12.8151 98.1284 12.6589V0.45207H100.95V4.59914C101.083 4.58712 101.203 4.58111 101.312 4.58111C101.432 4.58111 101.559 4.58111 101.692 4.58111C103.657 4.58111 105.134 4.9297 106.123 5.62689C107.112 6.32408 107.606 7.39991 107.606 8.85439ZM109.179 0.45207H112.001V12.9474H109.179V0.45207ZM101.511 6.96116C101.45 6.96116 101.366 6.96116 101.257 6.96116C101.149 6.96116 101.046 6.96717 100.95 6.97919V10.7116C101.083 10.7236 101.233 10.7296 101.402 10.7296C101.571 10.7296 101.776 10.7296 102.017 10.7296C102.391 10.7296 102.741 10.6995 103.066 10.6394C103.392 10.5793 103.675 10.4772 103.916 10.3329C104.169 10.1887 104.362 9.99633 104.495 9.75592C104.64 9.51551 104.712 9.215 104.712 8.85439C104.712 8.12114 104.435 7.62229 103.88 7.35784C103.337 7.09339 102.548 6.96116 101.511 6.96116Z" fill="white"/>
<path d="M38.3714 23.5957V29.1131C38.6005 29.1371 38.8718 29.1672 39.1854 29.2032C39.5109 29.2273 39.9028 29.2393 40.361 29.2393C40.9036 29.2393 41.4221 29.1972 41.9165 29.1131C42.4108 29.0289 42.8389 28.8787 43.2006 28.6623C43.5744 28.4459 43.8698 28.1574 44.0869 27.7968C44.316 27.4362 44.4305 26.9794 44.4305 26.4265C44.4305 25.8495 44.322 25.3807 44.105 25.0201C43.9 24.6475 43.5985 24.359 43.2006 24.1546C42.8148 23.9383 42.3445 23.794 41.7899 23.7219C41.2352 23.6377 40.6142 23.5957 39.9269 23.5957H38.3714ZM40.0897 22.5499C40.982 22.5499 41.7778 22.622 42.4771 22.7663C43.1765 22.9105 43.7613 23.1389 44.2316 23.4514C44.7139 23.7519 45.0816 24.1486 45.3349 24.6415C45.5881 25.1343 45.7147 25.7233 45.7147 26.4085C45.7147 27.7187 45.2565 28.6984 44.3401 29.3475C43.4237 29.9846 42.0792 30.3031 40.3067 30.3031C39.8003 30.3031 39.2517 30.2731 38.6608 30.213C38.0821 30.1649 37.5756 30.0807 37.1415 29.9605V17.6996H44.5933V18.7634H38.3714V22.5499H40.0897Z" fill="white"/>
<path d="M56.6446 30.1949C56.4155 29.5819 56.1985 28.9929 55.9935 28.4279C55.7885 27.8629 55.5896 27.31 55.3966 26.7691H49.3014C49.0964 27.31 48.8914 27.8629 48.6864 28.4279C48.4814 28.9929 48.2704 29.5819 48.0534 30.1949H46.7692C47.2515 28.8967 47.7037 27.6886 48.1257 26.5707C48.5478 25.4408 48.9577 24.377 49.3556 23.3793C49.7656 22.3696 50.1695 21.4019 50.5675 20.4764C50.9654 19.5508 51.3874 18.6252 51.8335 17.6996H52.9187C53.3649 18.6252 53.7869 19.5508 54.1848 20.4764C54.5827 21.4019 54.9806 22.3696 55.3785 23.3793C55.7885 24.377 56.2045 25.4408 56.6265 26.5707C57.0486 27.6886 57.5068 28.8967 58.0011 30.1949H56.6446ZM52.34 19.106C51.8818 20.1398 51.4356 21.1916 51.0015 22.2614C50.5795 23.3312 50.1394 24.4852 49.6812 25.7233H55.0168C54.5586 24.4852 54.1125 23.3312 53.6784 22.2614C53.2443 21.1916 52.7982 20.1398 52.34 19.106Z" fill="white"/>
<path d="M67.8336 17.6996H69.0635V30.1949H67.8336V24.1907H61.0329V30.1949H59.803V17.6996H61.0329V23.1269H67.8336V17.6996Z" fill="white"/>
<path d="M79.9767 30.1949C79.5667 29.5699 79.1025 28.9508 78.584 28.3378C78.0776 27.7247 77.541 27.1477 76.9743 26.6068C76.4076 26.0659 75.8288 25.573 75.238 25.1283C74.6592 24.6835 74.0985 24.3109 73.5559 24.0104V30.1949H72.326V17.6996H73.5559V23.5236C74.0141 23.1149 74.5205 22.6461 75.0752 22.1172C75.6419 21.5762 76.1966 21.0353 76.7392 20.4944C77.2938 19.9535 77.8123 19.4366 78.2946 18.9437C78.777 18.4509 79.1628 18.0362 79.4522 17.6996H80.9353C80.5856 18.0723 80.1636 18.517 79.6692 19.0339C79.1749 19.5388 78.6504 20.0617 78.0957 20.6026C77.541 21.1435 76.9864 21.6784 76.4317 22.2073C75.8891 22.7242 75.4008 23.181 74.9667 23.5776C75.3164 23.794 75.6901 24.0645 76.0881 24.389C76.498 24.7016 76.908 25.0502 77.318 25.4348C77.74 25.8074 78.15 26.2041 78.5479 26.6248C78.9578 27.0335 79.3376 27.4482 79.6873 27.869C80.0491 28.2897 80.3686 28.6984 80.6459 29.095C80.9353 29.4917 81.1704 29.8583 81.3513 30.1949H79.9767Z" fill="white"/>
</svg>
