<svg width="48" height="48" viewBox="0 0 48 48" fill="none" xmlns="http://www.w3.org/2000/svg">
<path d="M0 6C0 2.68629 2.68629 0 6 0L42 0C45.3137 0 48 2.68629 48 6L48 42C48 45.3137 45.3137 48 42 48L6 48C2.68629 48 0 45.3137 0 42L0 6Z" fill="#3D62E3"/>
<path d="M24 26.2857C25.2624 26.2857 26.2857 25.1476 26.2857 24C26.2857 22.8524 25.2624 21.7143 24 21.7143C22.7376 21.7143 21.7143 22.8524 21.7143 24C21.7143 25.1476 22.7376 26.2857 24 26.2857Z" fill="white"/>
<path d="M32 26.2857C33.2624 26.2857 34.2857 25.2624 34.2857 24C34.2857 22.7376 33.2624 21.7143 32 21.7143C30.7376 21.7143 29.7143 22.7376 29.7143 24C29.7143 25.2624 30.7376 26.2857 32 26.2857Z" fill="white"/>
<path d="M16 26.2857C17.2624 26.2857 18.2857 25.1476 18.2857 24C18.2857 22.8524 17.2624 21.7143 16 21.7143C14.7376 21.7143 13.7143 22.8524 13.7143 24C13.7143 25.1476 14.7376 26.2857 16 26.2857Z" fill="white"/>
</svg>
