<svg width="47" height="40" viewBox="0 0 47 40" fill="none" xmlns="http://www.w3.org/2000/svg">
<path d="M23.5651 39.6744C23.3139 40.1085 22.686 40.1085 22.4349 39.6744L15.0884 26.9767C14.8372 26.5426 15.1512 26 15.6535 26L30.3465 26C30.8488 26 31.1628 26.5426 30.9116 26.9767L23.5651 39.6744Z" fill="#16604F"/>
<path d="M0 6C0 2.68629 2.68629 0 6 0H41C44.3137 0 47 2.68629 47 6V24C47 27.3137 44.3137 30 41 30H6C2.68629 30 0 27.3137 0 24V6Z" fill="#16604F"/>
<path d="M20.2996 13.0779V11.6864C20.2996 11.6164 20.2395 11.5594 20.1665 11.5594H17.1609C17.0876 11.5594 17.0278 11.6167 17.0278 11.6864V13.0779H20.2996Z" fill="white"/>
<path d="M20.1676 13.5212H16.2266C16.1533 13.5212 16.0935 13.5785 16.0935 13.6482V21.4086C16.0935 21.4785 16.1536 21.5356 16.2266 21.5356H20.1676C20.2409 21.5356 20.3007 21.4783 20.3007 21.4086V13.6482C20.3009 13.5785 20.2409 13.5212 20.1676 13.5212ZM18.8378 19.7899H17.5564V18.1321H18.8378V19.7899ZM18.8378 16.6816H17.5564V15.0236H18.8378V16.6816Z" fill="white"/>
<path d="M27.5764 8.5183V7.14643C27.5764 7.06549 27.5077 7 27.4229 7H22.0614C21.9766 7 21.908 7.06549 21.908 7.14643V8.51805L27.5764 8.5183Z" fill="white"/>
<path d="M28.587 8.96117H20.8983C20.825 8.96117 20.7652 9.01845 20.7652 9.08817V21.4102C20.7652 21.4801 20.8253 21.5372 20.8983 21.5372H28.587C28.6604 21.5372 28.7201 21.4799 28.7201 21.4102V9.08817C28.7201 9.01845 28.6601 8.96117 28.587 8.96117ZM23.7543 18.204H22.4729V16.5462H23.7543V18.204ZM23.7543 15.0956H22.4729V13.4379H23.7543V15.0956ZM23.7543 11.9871H22.4729V10.3293H23.7543V11.9871ZM25.5776 21.5374H23.9075V19.3891H25.5776V21.5374ZM27.0122 18.204H25.7308V16.5462H27.0122V18.204ZM27.0122 15.0956H25.7308V13.4379H27.0122V15.0956ZM27.0122 11.9871H25.7308V10.3293H27.0122V11.9871Z" fill="white"/>
<path d="M33.4663 23H14.5337C14.2391 23 14 22.7721 14 22.4907C14 22.2096 14.2391 21.9815 14.5337 21.9815H33.4663C33.7609 21.9815 34 22.2096 34 22.4907C34 22.7721 33.7609 23 33.4663 23Z" fill="white"/>
<path d="M32.2842 20.4145C32.2934 20.3593 32.2981 20.3027 32.2981 20.245C32.2981 19.6466 31.7897 19.1615 31.1625 19.1615C31.0555 19.1615 30.9524 19.1759 30.8543 19.2023C30.6319 18.8051 30.1932 18.5347 29.6885 18.5347C29.5099 18.5347 29.3398 18.5685 29.1845 18.6298V21.5376H32.2059V21.5364C32.5168 21.5182 32.7631 21.2719 32.7631 20.9706C32.7631 20.6954 32.5572 20.4658 32.2842 20.4145Z" fill="white"/>
</svg>
