<svg width="18" height="20" viewBox="0 0 18 20" fill="none" xmlns="http://www.w3.org/2000/svg">
<path d="M12.895 5C12.895 7.20914 11.1511 9 9 9C6.84887 9 5.10503 7.20914 5.10503 5C5.10503 2.79086 6.84887 1 9 1C11.1511 1 12.895 2.79086 12.895 5Z" stroke="#D2D4D9" stroke-width="1.5"/>
<path d="M1.95787 13.7616C2.89307 10.9159 5.49166 9 8.41617 9H9.58383C12.5083 9 15.1069 10.9159 16.0421 13.7615L16.8962 16.3604C17.3223 17.6569 16.3833 19 15.051 19H2.94901C1.61666 19 0.677724 17.6569 1.10378 16.3604L1.95787 13.7616Z" stroke="#D2D4D9" stroke-width="1.5"/>
</svg>
